<svg xmlns="http://www.w3.org/2000/svg" viewBox="0 0 448 512">
  <defs>
    <linearGradient id="IG-gradient" x1="0%" y1="0%" x2="100%" y2="100%">
      <stop offset="0%" stop-color="#feda75"/>
      <stop offset="20%" stop-color="#fa7e1e"/>
      <stop offset="40%" stop-color="#d62976"/>
      <stop offset="60%" stop-color="#962fbf"/>
      <stop offset="80%" stop-color="#4f5bd5"/>
      <stop offset="100%" stop-color="#4f5bd5"/>
    </linearGradient>
  </defs>
  <path fill="url(#IG-gradient)" d="M224.1 141c-63.6 0-114.9 51.3-114.9 114.9S160.5 370.8 224.1 370.8 339 319.5 339 255.9 287.7 141 224.1 141zm124.1-41.8c0 14.5-11.8 26.2-26.2 26.2s-26.2-11.8-26.2-26.2 11.8-26.2 26.2-26.2 26.2 11.7 26.2 26.2zM398.8 80.1c-17.8-17.8-41.5-27.5-66.7-27.5H115.9C90.7 52.6 67 62.3 49.2 80.1 31.4 98 21.7 121.6 21.7 146.8v187.5c0 25.2 9.7 48.8 27.5 66.7 17.8 17.8 41.5 27.5 66.7 27.5h216.2c25.2 0 48.8-9.7 66.7-27.5 17.8-17.8 27.5-41.5 27.5-66.7V146.8c.1-25.2-9.6-48.9-27.5-66.7z"/>
</svg>
